Coordinates
version=1
nRows=18
nColumns=22
inDegrees=yes

Units are S.I. units (second, meters, Newtons, ...)
If the header above contains a line with 'inDegrees', this indicates whether rotational values are in degrees (yes) or radians (no).

endheader
time	pelvis_tilt	pelvis_list	pelvis_rotation	pelvis_tx	pelvis_ty	pelvis_tz	hip_flexion_r	hip_adduction_r	hip_rotation_r	knee_angle_r	ankle_angle_r	subtalar_angle_r	hip_flexion_l	hip_adduction_l	hip_rotation_l	knee_angle_l	ankle_angle_l	subtalar_angle_l	lumbar_extension	lumbar_bending	lumbar_rotation
      5.98000000	     -5.84016368	     -2.05122291	    288.75799680	     -0.27251862	      1.01238867	      0.22412643	     12.83958783	      9.36002513	      6.26316789	    -18.70660491	      8.56768217	      7.74785461	      8.41146589	     -8.91734397	     -4.56620185	    -54.03548358	      7.07880658	     -0.48916318	    -12.91817723	      8.22889023	      4.59196963
      5.99000000	     -5.75556788	     -2.12234901	    289.34808522	     -0.27202127	      1.01295175	      0.22786278	     12.43646735	      9.26976804	      5.88468981	    -18.55562043	      9.06709583	      8.03283272	      9.00783406	     -9.18949673	     -5.32388296	    -54.31068355	      7.47725936	     -0.46254738	    -13.08236933	      8.25161622	      4.78147418
      6.00000000	     -5.66313049	     -2.18166283	    289.93764416	     -0.27141135	      1.01348850	      0.23146323	     12.05244241	      9.16116013	      5.48696901	    -18.41511613	      9.53575782	      8.40851264	      9.61234858	     -9.36739676	     -5.93167348	    -54.46711295	      7.81023626	     -0.25817273	    -13.23839723	      8.27744418	      4.93906700
      6.01000000	     -5.56756850	     -2.21929824	    290.50554403	     -0.27072628	      1.01398533	      0.23496672	     11.69176415	      9.04202247	      5.09926852	    -18.27700737	      9.96648400	      8.79718945	     10.23139290	     -9.47152762	     -6.43780038	    -54.51193793	      8.08685359	      0.12026380	    -13.37461942	      8.30246281	      5.10993008
      6.02000000	     -5.47795863	     -2.25148392	    291.09002301	     -0.26995091	      1.01444931	      0.23837459	     11.32285833	      8.92477982	      4.70622726	    -18.10305981	     10.37342817	      9.07098522	     10.85880043	     -9.51728808	     -6.79993554	    -54.44576756	      8.39753802	      0.49065121	    -13.50125293	      8.34036928	      5.25809631
      6.03000000	     -5.40126334	     -2.27424794	    291.64547342	     -0.26918198	      1.01486338	      0.24173171	     10.96975599	      8.82719911	      4.34404738	    -17.93046234	     10.76043735	      9.34229962	     11.49297535	     -9.55196355	     -7.12088333	    -54.28355765	      8.71033826	      0.91641766	    -13.61671785	      8.38440576	      5.42250500
      6.04000000	     -5.33477373	     -2.29363555	    292.18443715	     -0.26840847	      1.01524121	      0.24505197	     10.61785137	      8.74573457	      3.99817052	    -17.74338405	     11.11513536	      9.58205369	     12.12611154	     -9.58295798	     -7.40259997	    -54.02670243	      9.04312457	      1.33901716	    -13.72524274	      8.43493355	      5.57995556
      6.05000000	     -5.27659746	     -2.32510840	    292.73196948	     -0.26758706	      1.01560573	      0.24832821	     10.25030341	      8.67823206	      3.61723671	    -17.53668869	     11.42271286	      9.72706727	     12.74844038	     -9.61226122	     -7.62483536	    -53.68002651	      9.38511495	      1.61904558	    -13.84132737	      8.50058444	      5.71207570
      6.06000000	     -5.23402528	     -2.35269979	    293.24776068	     -0.26680131	      1.01593468	      0.25158189	      9.88644889	      8.63746630	      3.28118511	    -17.31453292	     11.70733165	      9.88895833	     13.36987434	     -9.65260684	     -7.82626006	    -53.24879137	      9.71917891	      1.93499872	    -13.95174945	      8.56809794	      5.90059651
      6.07000000	     -5.20068000	     -2.38404590	    293.73762351	     -0.26601873	      1.01623429	      0.25485615	      9.51825121	      8.61692484	      2.95186490	    -17.08492644	     11.96553057	      9.96455839	     13.97265442	     -9.71691317	     -8.04966958	    -52.72930139	     10.05219907	      2.07742224	    -14.05865456	      8.64005789	      6.07591962
      6.08000000	     -5.17324517	     -2.42110745	    294.21894616	     -0.26524184	      1.01651800	      0.25808856	      9.14236976	      8.61165468	      2.62905013	    -16.83745527	     12.19138433	     10.03901644	     14.56737510	     -9.77897564	     -8.23129549	    -52.13001344	     10.33933740	      2.16535951	    -14.17494947	      8.70952684	      6.27480003
      6.09000000	     -5.15194461	     -2.45771904	    294.67257494	     -0.26445978	      1.01676954	      0.26133026	      8.76882134	      8.61946273	      2.31687168	    -16.58830373	     12.40485715	     10.08283976	     15.14491684	     -9.85099478	     -8.42698984	    -51.44535866	     10.59363888	      2.13161649	    -14.28679653	      8.77830144	      6.47032359
      6.10000000	     -5.14002628	     -2.48562517	    295.09571296	     -0.26367366	      1.01697513	      0.26455576	      8.40987280	      8.63980472	      2.03641101	    -16.34240171	     12.61906137	     10.10082616	     15.71544119	     -9.91803026	     -8.61082241	    -50.67683507	     10.81644260	      2.03085896	    -14.38795366	      8.84568077	      6.69624843
      6.11000000	     -5.11096132	     -2.55359570	    295.51937828	     -0.26283437	      1.01724801	      0.26776042	      7.99061841	      8.65934131	      1.72061869	    -16.06524388	     12.78132545	     10.15921660	     16.22048526	     -9.96831327	     -8.76531100	    -49.81443470	     10.93453086	      1.63114971	    -14.54212897	      8.90879812	      6.89177974
      6.12000000	     -5.09943579	     -2.60002966	    295.89668095	     -0.26201262	      1.01744334	      0.27097172	      7.60347379	      8.69454841	      1.45329580	    -15.79770434	     12.95724306	     10.18958685	     16.72978371	    -10.02107219	     -8.93441773	    -48.87689951	     11.05561632	      1.26467837	    -14.66851482	      8.96864097	      7.11671860
      6.13000000	     -5.09463231	     -2.65154669	    296.25288544	     -0.26115885	      1.01761924	      0.27418013	      7.20879554	      8.73977769	      1.18623170	    -15.51942302	     13.11740938	     10.22050886	     17.21753261	    -10.06671876	     -9.09153961	    -47.86495095	     11.15059910	      0.91655779	    -14.79815379	      9.03072562	      7.33513879
      6.14000000	     -5.09674059	     -2.70191811	    296.58225638	     -0.26026310	      1.01777250	      0.27737386	      6.81168569	      8.79222646	      0.94940240	    -15.22976192	     13.26202776	     10.25779695	     17.68714858	    -10.09349712	     -9.22120551	    -46.78027533	     11.21626331	      0.59038638	    -14.92574691	      9.09553227	      7.57236543
      6.15000000	     -5.10569654	     -2.75281381	    296.89949116	     -0.25928748	      1.01789581	      0.28055871	      6.41191671	      8.84799854	      0.69568034	    -14.93031511	     13.40008860	     10.29595019	     18.14241401	    -10.10337644	     -9.32918236	    -45.63611813	     11.26438112	      0.34072945	    -15.04795180	      9.17019387	      7.78074471
